<svg width="32" height="32" viewBox="0 0 32 32" fill="none" xmlns="http://www.w3.org/2000/svg">
<path d="M19.2741 18.051C20.1213 16.8949 20.5008 15.4615 20.3366 14.0375C20.1724 12.6136 19.4765 11.3042 18.3884 10.3713C17.3002 9.43833 15.8998 8.95068 14.4675 9.00587C13.0352 9.06106 11.6766 9.65502 10.6634 10.6689C9.65024 11.6828 9.05725 13.0419 9.00309 14.4742C8.94893 15.9066 9.43758 17.3065 10.3713 18.3941C11.305 19.4816 12.6149 20.1765 14.039 20.3397C15.463 20.5029 16.8961 20.1224 18.0517 19.2743H18.0508C18.0771 19.3093 18.1051 19.3425 18.1366 19.3749L21.5053 22.7437C21.6694 22.9078 21.892 23.0001 22.1241 23.0002C22.3562 23.0003 22.5788 22.9082 22.743 22.7441C22.9072 22.58 22.9995 22.3574 22.9995 22.1253C22.9996 21.8932 22.9075 21.6706 22.7434 21.5064L19.3747 18.1377C19.3434 18.106 19.3098 18.0767 19.2741 18.0502V18.051ZM19.4998 14.6875C19.4998 15.3195 19.3753 15.9453 19.1335 16.5292C18.8916 17.1131 18.5371 17.6436 18.0903 18.0905C17.6434 18.5374 17.1129 18.8918 16.529 19.1337C15.9451 19.3755 15.3193 19.5 14.6873 19.5C14.0553 19.5 13.4295 19.3755 12.8456 19.1337C12.2618 18.8918 11.7312 18.5374 11.2844 18.0905C10.8375 17.6436 10.483 17.1131 10.2411 16.5292C9.99929 15.9453 9.87481 15.3195 9.87481 14.6875C9.87481 13.4112 10.3818 12.1871 11.2844 11.2846C12.1869 10.3821 13.411 9.87503 14.6873 9.87503C15.9637 9.87503 17.1877 10.3821 18.0903 11.2846C18.9928 12.1871 19.4998 13.4112 19.4998 14.6875V14.6875Z" fill="black"/>
</svg>
