

<svg width="33" height="32" viewBox="0 0 33 32" fill="none" xmlns="http://www.w3.org/2000/svg">
  <rect x="1" y="0.5" width="31" height="31" rx="5.5" stroke="rgba(0, 0, 0, 0.48)" stroke-width="1"/>
  <path d="M14.75 18.1875C14.75 18.0715 14.7961 17.9602 14.8781 17.8781C14.9602 17.7961 15.0715 17.75 15.1875 17.75H17.8125C17.9285 17.75 18.0398 17.7961 18.1219 17.8781C18.2039 17.9602 18.25 18.0715 18.25 18.1875C18.25 18.3035 18.2039 18.4148 18.1219 18.4969C18.0398 18.5789 17.9285 18.625 17.8125 18.625H15.1875C15.0715 18.625 14.9602 18.5789 14.8781 18.4969C14.7961 18.4148 14.75 18.3035 14.75 18.1875ZM13 15.5625C13 15.4465 13.0461 15.3352 13.1281 15.2531C13.2102 15.1711 13.3215 15.125 13.4375 15.125H19.5625C19.6785 15.125 19.7898 15.1711 19.8719 15.2531C19.9539 15.3352 20 15.4465 20 15.5625C20 15.6785 19.9539 15.7898 19.8719 15.8719C19.7898 15.9539 19.6785 16 19.5625 16H13.4375C13.3215 16 13.2102 15.9539 13.1281 15.8719C13.0461 15.7898 13 15.6785 13 15.5625ZM11.25 12.9375C11.25 12.8215 11.2961 12.7102 11.3781 12.6281C11.4602 12.5461 11.5715 12.5 11.6875 12.5H21.3125C21.4285 12.5 21.5398 12.5461 21.6219 12.6281C21.7039 12.7102 21.75 12.8215 21.75 12.9375C21.75 13.0535 21.7039 13.1648 21.6219 13.2469C21.5398 13.3289 21.4285 13.375 21.3125 13.375H11.6875C11.5715 13.375 11.4602 13.3289 11.3781 13.2469C11.2961 13.1648 11.25 13.0535 11.25 12.9375Z" fill="black"/>
</svg>


